<?xml version="1.0" standalone="no"?>
<!DOCTYPE svg PUBLIC "-//W3C//DTD SVG 20010904//EN"
 "http://www.w3.org/TR/2001/REC-SVG-20010904/DTD/svg10.dtd">
<svg version="1.0" xmlns="http://www.w3.org/2000/svg"
 width="1024.000000pt" height="1024.000000pt" viewBox="0 0 1024.000000 1024.000000"
 preserveAspectRatio="xMidYMid meet">
<metadata>
Created by potrace 1.11, written by Peter Selinger 2001-2013
</metadata>
<g transform="translate(0.000000,1024.000000) scale(0.100000,-0.100000)"
fill="#000000" stroke="none">
<path d="M5239 10119 c-9 -4 -36 -11 -60 -14 -24 -3 -59 -10 -79 -15 -19 -5
-52 -8 -72 -6 -25 2 -55 -6 -93 -24 -45 -22 -66 -26 -110 -23 -46 3 -57 0 -75
-19 -13 -15 -23 -19 -28 -12 -11 17 -35 22 -55 12 -11 -5 -40 -11 -65 -14 -89
-7 -127 -17 -186 -46 -52 -26 -72 -30 -147 -32 -81 -1 -90 -3 -116 -28 -20
-19 -40 -28 -63 -28 -22 0 -85 -25 -175 -69 -121 -60 -153 -81 -226 -148 -46
-43 -119 -104 -161 -136 -49 -36 -91 -77 -117 -115 -22 -32 -51 -66 -65 -75
-27 -18 -75 -65 -148 -144 -25 -28 -57 -58 -70 -67 -19 -12 -24 -23 -21 -44 3
-20 -4 -38 -29 -67 -88 -104 -207 -286 -213 -325 0 -3 -3 -9 -7 -15 -13 -22
-49 -169 -43 -182 3 -8 0 -23 -6 -34 -11 -22 -14 -34 -29 -124 -17 -104 -24
-138 -65 -335 -38 -184 -47 -244 -38 -247 8 -3 8 -14 1 -36 -5 -18 -11 -54
-12 -82 -2 -27 -10 -66 -18 -85 -16 -38 -14 -59 9 -77 12 -10 13 -18 5 -42 -9
-25 -8 -32 4 -39 14 -8 13 -16 -5 -70 -19 -56 -20 -65 -7 -103 10 -27 12 -49
6 -64 -11 -29 -1 -40 16 -17 12 15 13 15 14 -10 0 -14 -5 -28 -12 -30 -17 -6
-18 -86 -1 -136 17 -51 14 -87 -7 -88 -27 -1 -32 8 -15 26 15 17 13 20 -28 54
-51 42 -115 67 -154 60 -62 -10 -83 -16 -83 -23 0 -4 -11 -13 -25 -19 -51 -24
-101 -127 -120 -252 -3 -19 -8 -42 -10 -50 -15 -56 -20 -184 -11 -265 16 -136
81 -307 151 -400 103 -135 146 -218 176 -342 24 -101 58 -213 69 -228 7 -10
24 -75 54 -209 27 -118 92 -199 172 -212 16 -2 40 -7 52 -10 13 -2 30 0 38 7
8 6 14 8 15 3 0 -5 3 -18 6 -29 3 -11 6 -70 7 -132 1 -101 3 -113 23 -131 16
-13 19 -22 12 -29 -16 -16 -22 -102 -9 -118 6 -7 9 -29 7 -49 -5 -41 7 -55 22
-29 12 21 11 26 16 -92 2 -51 11 -102 25 -140 12 -33 24 -86 26 -118 3 -34 21
-100 44 -162 22 -58 40 -110 40 -116 0 -6 21 -54 46 -106 42 -87 90 -221 101
-284 4 -22 -3 -30 -58 -65 -35 -21 -68 -41 -74 -43 -50 -20 -197 -133 -275
-212 -183 -186 -456 -323 -705 -354 -22 -3 -76 -12 -120 -20 -44 -8 -93 -17
-110 -20 -60 -10 -93 -17 -230 -46 -77 -16 -149 -32 -160 -34 -61 -14 -162
-33 -215 -40 -19 -3 -62 -10 -95 -15 -33 -6 -78 -12 -100 -14 -35 -4 -202 -27
-304 -42 -19 -2 -76 -7 -125 -9 -188 -11 -201 -14 -390 -100 -44 -19 -274 -91
-318 -99 l-38 -7 3 -1172 2 -1172 5118 -2 5117 -3 0 935 0 935 -27 2 c-42 2
-47 3 -60 11 -7 5 -13 6 -13 3 0 -3 -37 11 -82 30 -46 20 -132 49 -192 65 -64
17 -140 46 -181 68 -83 46 -113 54 -420 116 -126 26 -239 48 -250 51 -20 4
-48 9 -107 19 -17 3 -34 7 -37 9 -3 2 -22 7 -41 10 -74 12 -95 18 -159 40 -84
30 -204 86 -511 240 -252 127 -292 148 -420 231 -41 26 -95 59 -120 73 -92 52
-574 291 -578 288 -4 -5 -8 -30 -17 -126 -4 -36 -9 -73 -11 -83 -3 -18 -10
-159 -20 -417 -11 -272 -10 -270 -141 -460 -169 -246 -211 -288 -375 -373 -47
-25 -124 -67 -170 -93 -46 -26 -108 -61 -138 -77 -30 -16 -103 -56 -161 -88
-58 -32 -129 -67 -158 -79 -58 -22 -131 -26 -164 -8 -39 20 -137 14 -187 -12
-40 -20 -58 -23 -150 -22 -109 2 -157 8 -176 23 -6 5 -24 5 -42 -2 -22 -7 -46
-8 -78 -1 -38 8 -140 8 -188 -1 -12 -2 -12 3 -2 45 l6 27 -25 -23 c-20 -19
-35 -22 -82 -21 -46 1 -59 5 -61 18 -4 19 -18 22 -27 6 -20 -31 -236 44 -338
117 -26 19 -57 34 -69 34 -12 0 -36 13 -53 28 -16 16 -51 36 -76 46 -56 20
-160 85 -299 185 -96 69 -159 130 -219 211 -191 260 -283 566 -281 935 0 166
11 409 19 445 1 3 14 -24 30 -60 15 -36 47 -104 69 -152 45 -96 73 -181 74
-228 1 -30 11 -39 23 -20 11 17 31 11 32 -10 2 -30 38 -75 78 -100 35 -22 62
-57 51 -67 -13 -13 27 -63 62 -78 36 -16 39 -20 38 -59 -1 -37 1 -41 24 -43
14 0 31 -1 38 -2 8 -1 11 -8 7 -20 -5 -16 2 -22 37 -33 23 -8 44 -20 46 -27 3
-10 0 -10 -16 -2 -48 25 -41 8 11 -29 30 -22 62 -40 69 -40 21 0 86 -48 93
-69 3 -10 27 -30 53 -43 26 -14 63 -34 82 -45 109 -63 170 -99 208 -125 23
-16 42 -28 43 -26 0 2 2 11 4 21 5 26 8 28 53 29 42 0 108 -17 131 -36 8 -6
37 -11 65 -11 45 0 51 -3 54 -23 4 -24 8 -25 91 -13 48 7 54 6 59 -11 4 -17 7
-17 26 -5 49 32 81 36 125 16 38 -17 44 -17 58 -4 25 25 62 28 129 10 62 -17
66 -17 85 1 16 14 36 17 104 16 46 0 89 -3 94 -6 5 -3 50 8 100 24 96 32 140
31 80 -1 -19 -10 -40 -18 -47 -19 -25 0 -83 -30 -78 -39 3 -5 53 9 112 30 122
45 146 57 157 76 5 8 19 13 32 11 14 -2 61 16 107 39 46 23 98 47 117 54 41
15 95 57 266 207 242 212 255 225 255 244 0 10 7 18 15 18 13 0 25 30 40 103
7 35 33 46 51 22 16 -21 14 -22 37 28 9 20 24 37 32 37 10 0 15 7 14 18 -5 27
11 75 31 97 10 11 22 36 25 55 3 19 28 68 56 108 27 41 49 79 50 85 2 34 12
66 40 126 17 36 37 82 44 101 7 19 33 79 59 133 25 54 46 102 46 108 0 5 4 17
10 27 5 9 18 47 29 84 11 38 46 132 77 210 51 130 85 241 100 323 3 17 9 48
14 70 5 22 11 58 14 80 4 22 9 56 13 75 3 19 7 46 9 60 1 14 3 25 4 25 1 0 3
11 4 25 9 82 23 171 30 177 2 3 15 -1 27 -8 55 -29 161 3 220 68 52 55 75 123
94 268 9 71 53 219 121 406 37 101 93 261 124 355 32 94 63 180 69 190 26 47
41 93 45 139 3 28 18 86 34 130 39 111 31 209 -26 299 -72 115 -167 146 -279
90 -32 -16 -62 -31 -67 -33 -4 -2 -6 16 -2 40 3 24 6 51 7 59 1 8 6 21 12 28
5 6 7 12 4 12 -3 0 1 22 7 48 16 60 15 488 -2 547 -6 22 -13 56 -16 75 -3 19
-10 52 -15 73 -7 30 -6 37 5 37 12 0 14 11 10 54 -7 66 -17 129 -22 137 -2 4
-6 24 -9 45 -3 22 -10 62 -15 89 -5 28 -12 66 -15 85 -10 61 -36 163 -60 230
-12 36 -23 81 -23 101 -1 42 -28 127 -47 149 -7 8 -14 20 -16 25 -12 30 -73
125 -103 160 -20 22 -38 54 -42 70 -3 17 -12 37 -18 45 -30 36 -84 150 -91
189 -7 45 -41 90 -176 237 -91 99 -102 109 -139 124 -21 9 -30 19 -30 36 0 39
-71 95 -139 109 -51 11 -124 55 -205 126 -37 32 -158 97 -236 126 -36 13 -94
39 -130 57 -36 18 -92 38 -125 46 -33 7 -85 19 -115 26 -30 7 -68 15 -85 18
-16 3 -41 8 -55 11 -14 3 -38 8 -54 11 -16 2 -32 6 -35 8 -3 2 -22 7 -41 10
-19 3 -45 8 -56 10 -34 7 -106 17 -214 31 -19 2 -69 10 -111 18 -65 12 -94 13
-164 6 -5 -1 -26 6 -45 14 -23 10 -41 12 -51 6z m-1199 -1278 c-14 -28 -15
-28 43 -22 85 9 140 7 144 -6 3 -9 -19 -13 -79 -15 l-83 -3 -2 -33 -3 -32 33
16 c17 9 40 23 49 31 22 20 44 7 23 -14 -32 -31 -68 -84 -61 -90 3 -4 29 4 56
17 65 30 76 19 16 -17 -48 -29 -59 -44 -28 -39 9 2 51 9 92 15 41 7 87 16 102
21 24 8 30 5 44 -19 24 -40 61 -59 119 -58 44 0 50 -3 55 -24 5 -18 12 -23 31
-21 23 3 23 2 5 -13 -11 -8 -25 -15 -32 -15 -6 0 -18 -7 -25 -16 -12 -15 -11
-16 11 -9 112 36 110 36 122 10 15 -33 26 -32 30 3 3 19 6 22 11 12 21 -48 30
-77 28 -91 -3 -23 26 -18 88 15 58 30 69 29 51 -4 -11 -21 -10 -21 37 -15 45
6 47 5 29 -9 -11 -9 -26 -16 -33 -16 -7 0 -13 -5 -13 -11 0 -7 11 -8 29 -4 24
5 30 2 36 -14 9 -30 24 -26 20 4 -2 27 31 85 53 93 9 3 10 -3 2 -23 -5 -14
-12 -39 -15 -55 l-5 -29 70 3 c39 2 74 6 77 10 4 3 1 6 -5 6 -7 0 -12 5 -12
10 0 16 23 11 50 -9 18 -14 29 -17 42 -10 24 13 23 26 -4 35 -22 8 -21 8 7 14
49 11 116 3 137 -16 15 -15 22 -16 36 -6 9 7 28 17 41 22 12 6 30 19 40 29 24
26 95 44 145 35 22 -4 45 -8 50 -8 5 -1 18 -19 29 -40 l21 -39 11 39 10 38 35
-43 35 -43 39 44 39 43 -6 -37 c-6 -43 1 -47 28 -18 21 24 37 26 29 5 -4 -8
-2 -15 2 -15 10 0 54 65 54 80 0 5 5 10 10 10 6 0 10 -16 10 -35 0 -19 5 -35
10 -35 6 0 10 4 10 8 0 5 16 27 36 50 37 44 63 52 84 27 13 -16 11 -18 -42
-29 -54 -12 -27 -25 60 -28 48 -2 102 1 119 6 37 10 42 8 48 -23 8 -44 24 -50
70 -29 25 11 26 14 20 77 -4 36 -8 76 -10 88 -2 13 1 25 6 28 5 4 9 0 9 -7 1
-25 12 -93 16 -97 2 -3 10 4 18 14 12 17 16 17 30 6 21 -18 23 -15 30 39 4 25
8 53 9 62 3 20 17 36 18 22 0 -5 2 -16 4 -24 2 -8 6 -28 9 -44 9 -47 24 -53
31 -12 9 48 23 46 31 -4 9 -55 24 -61 24 -9 0 42 0 42 20 24 23 -21 29 -18 36
21 6 33 14 45 14 21 0 -20 16 -23 23 -4 3 9 28 -81 31 -115 1 -3 4 -9 8 -13
10 -11 21 40 13 64 -11 34 10 24 33 -17 32 -58 55 -80 92 -89 19 -5 36 -15 36
-21 1 -7 2 -17 3 -23 0 -5 6 -7 11 -4 6 3 10 24 10 45 0 47 15 61 24 22 4 -15
12 -45 18 -67 l10 -40 12 28 c11 28 12 27 47 -60 57 -140 91 -293 92 -423 0
-72 -4 -115 -11 -122 -19 -19 -14 -41 17 -70 34 -32 96 -157 106 -213 l7 -39
19 24 19 25 -6 -45 c-7 -55 -9 -57 -29 -36 -19 19 -36 21 -30 4 4 -14 35 -142
40 -167 2 -9 6 -29 10 -46 6 -30 6 -30 -10 -8 -28 37 -55 66 -55 59 0 -4 9
-35 20 -69 11 -34 21 -73 24 -87 9 -56 21 -87 48 -135 83 -143 119 -257 124
-395 2 -47 11 -110 19 -140 16 -55 20 -99 30 -285 2 -55 7 -113 11 -130 3 -16
5 -57 5 -90 -1 -33 -2 -80 -2 -105 -1 -25 0 -54 1 -65 4 -53 -3 -126 -16 -180
-28 -112 -34 -126 -53 -120 -16 5 -18 0 -13 -43 3 -41 -1 -60 -32 -123 -34
-71 -76 -209 -76 -253 0 -12 -7 -32 -16 -44 -8 -12 -13 -31 -9 -42 3 -10 1
-29 -5 -40 -6 -11 -12 -72 -12 -136 -2 -111 -3 -116 -30 -146 -27 -31 -33 -49
-42 -138 -2 -25 -8 -53 -12 -64 -4 -10 -2 -21 5 -25 8 -5 7 -20 -4 -58 -12
-42 -21 -53 -45 -62 -18 -6 -35 -21 -41 -38 -7 -15 -19 -42 -27 -60 -16 -32
-9 -60 8 -33 12 18 12 18 14 -48 1 -55 -3 -62 -24 -37 -18 22 -29 18 -36 -12
l-7 -26 -28 31 c-45 50 -51 42 -45 -53 5 -86 -1 -102 -27 -65 -15 22 -28 17
-20 -8 3 -12 -2 -9 -16 6 l-20 23 -15 -30 c-10 -18 -13 -41 -10 -59 5 -26 3
-30 -22 -36 -41 -11 -53 -23 -60 -64 -6 -31 -8 -33 -19 -19 -17 24 -22 21 -29
-13 -4 -24 -12 -32 -36 -36 -29 -6 -34 -14 -31 -41 1 -7 -12 -27 -29 -44 -34
-36 -36 -46 -15 -69 13 -15 11 -22 -18 -70 -26 -45 -39 -56 -72 -65 -31 -9
-42 -19 -53 -45 -12 -29 -15 -32 -23 -17 -16 27 -37 105 -31 111 3 4 -2 6 -11
6 -9 0 -18 -4 -18 -10 -1 -5 -2 -16 -3 -22 -1 -7 4 -25 11 -40 10 -20 10 -28
2 -28 -8 0 -10 -17 -5 -57 4 -37 3 -54 -3 -48 -5 6 -11 21 -13 35 -5 36 -43
35 -43 -2 -1 -14 -6 -33 -13 -41 -7 -7 -15 -35 -18 -60 -9 -65 -29 -68 -45 -5
-8 28 -19 53 -26 55 -19 7 -45 -17 -38 -35 12 -33 -6 -77 -38 -92 -25 -11 -33
-22 -35 -46 -2 -22 -9 -34 -23 -37 -16 -4 -19 -11 -14 -28 6 -17 4 -21 -8 -16
-18 7 -28 -13 -20 -42 9 -36 -15 -23 -27 14 -6 19 -15 35 -20 35 -4 0 -11 -27
-15 -60 -8 -65 -18 -73 -52 -40 -24 22 -29 19 -63 -49 l-22 -44 -30 47 c-17
26 -33 45 -35 43 -2 -3 -6 -38 -9 -78 -7 -97 -12 -101 -29 -25 l-6 30 -24 -30
c-13 -16 -32 -44 -41 -63 -15 -31 -15 -36 1 -77 19 -50 20 -57 7 -62 -5 -1
-21 17 -35 41 -19 32 -35 46 -55 50 -37 7 -46 38 -26 85 19 46 18 49 -16 67
-38 20 -43 19 -37 -4 3 -13 -6 -30 -29 -52 -19 -18 -36 -31 -38 -28 -2 2 -7
24 -10 48 -4 32 -1 51 9 68 18 27 10 29 -33 7 -43 -21 -47 -32 -25 -63 18 -23
19 -30 7 -64 -13 -36 -10 -67 6 -67 12 0 39 -45 45 -77 12 -54 11 -57 -30 -69
-22 -6 -39 -17 -38 -23 2 -6 -1 -11 -7 -11 -5 0 -14 17 -19 37 -36 141 -33
137 -81 102 -25 -19 -27 -25 -18 -48 16 -40 26 -89 20 -96 -3 -3 -16 2 -29 10
-13 9 -23 14 -23 13 0 -2 4 -17 9 -34 7 -25 5 -33 -11 -43 -11 -7 -21 -11 -23
-9 -2 2 -6 64 -10 138 -4 74 -8 146 -9 160 -1 20 -6 24 -31 25 l-30 0 2 -60
c0 -33 1 -70 2 -82 1 -13 7 -23 16 -23 12 0 15 -14 15 -65 0 -37 -4 -65 -10
-65 -5 0 -10 7 -10 16 0 8 -9 36 -21 61 -12 27 -18 55 -15 69 8 30 -31 111
-46 96 -7 -7 -6 -16 1 -30 8 -15 6 -23 -13 -41 -12 -11 -28 -21 -34 -21 -24 0
-52 40 -52 75 0 44 26 109 40 100 5 -3 10 3 10 14 0 11 -5 23 -10 26 -15 10
-50 -5 -50 -20 0 -8 -5 -26 -12 -40 l-11 -25 -24 22 c-28 26 -31 23 -35 -26
-3 -47 -9 -51 -42 -25 -27 21 -38 11 -11 -11 8 -7 29 -38 46 -69 18 -31 45
-77 61 -103 31 -50 45 -98 28 -98 -6 0 -15 11 -22 24 -13 30 -36 40 -54 25
-11 -9 -14 -6 -14 14 0 14 -5 29 -10 32 -6 4 -31 48 -57 98 -45 90 -46 92 -58
65 -8 -22 -14 -25 -23 -16 -9 9 -12 8 -12 -4 0 -27 -15 -29 -39 -7 l-22 21 22
24 c19 20 20 24 6 29 -12 5 -13 13 -6 38 11 39 11 37 -2 37 -6 0 -18 -18 -26
-40 -10 -26 -22 -40 -32 -39 -33 3 -40 -2 -77 -61 -22 -33 -42 -60 -46 -60
-11 0 -10 6 7 47 14 32 14 38 0 53 -14 15 -14 20 0 46 8 16 15 37 15 46 0 15
-4 16 -27 7 -30 -11 -46 3 -37 33 3 9 -2 22 -10 30 -12 11 -11 16 7 36 l21 22
-57 -6 c-31 -4 -57 -3 -57 0 0 4 7 18 16 32 22 33 13 39 -26 19 l-32 -16 4 47
3 48 -59 -2 c-33 -1 -72 -9 -89 -17 -28 -14 -29 -14 -24 5 5 19 -6 25 -40 21
-19 -3 -16 14 7 34 24 22 25 29 4 50 -25 24 -8 31 31 12 19 -9 35 -14 35 -11
0 11 -43 89 -53 95 -5 4 -6 12 -3 18 4 6 12 9 17 6 22 -14 27 8 8 40 l-21 34
-37 -25 c-32 -21 -42 -23 -65 -14 -35 13 -26 27 24 35 63 11 57 25 -9 25 -34
0 -61 3 -61 8 0 4 19 16 42 27 50 24 61 44 21 38 -26 -4 -26 -3 -10 10 26 21
21 30 -14 23 -28 -5 -30 -4 -27 22 2 16 12 31 26 37 32 14 27 27 -9 21 -45 -7
-96 -50 -109 -93 -6 -21 -13 -44 -16 -51 -3 -11 -27 11 -61 57 -2 3 -20 6 -40
8 -41 3 -52 14 -46 47 6 27 -4 35 -47 41 -27 3 -31 0 -42 -38 -7 -26 -13 -35
-15 -24 -9 37 -27 15 -26 -31 1 -16 -8 -15 -35 4 -20 14 -22 22 -18 94 3 68 1
81 -15 96 -11 10 -19 30 -19 51 0 46 -17 41 -31 -9 l-11 -43 -26 53 c-14 28
-30 52 -35 52 -4 0 -6 -18 -4 -40 2 -22 2 -42 -1 -44 -2 -3 -20 7 -39 21 -31
24 -34 31 -31 64 3 33 1 38 -17 36 -17 -2 -20 5 -23 49 -3 47 -5 52 -27 52
-18 0 -25 -6 -25 -20 0 -10 -4 -17 -9 -14 -5 3 -8 33 -7 66 2 53 0 59 -16 54
-10 -3 -18 0 -18 6 0 7 -7 10 -15 6 -12 -4 -15 5 -15 52 0 43 -8 73 -30 120
-23 48 -27 68 -20 82 14 26 13 31 -7 28 -12 -2 -18 4 -19 17 -2 26 -34 273
-40 305 -2 14 -6 48 -10 75 -3 28 -10 64 -15 80 -4 17 -11 53 -14 80 -18 154
-28 204 -51 269 -14 39 -32 105 -40 146 -7 41 -18 95 -23 120 -17 76 -21 94
-25 115 -44 224 -51 483 -21 725 2 19 7 60 10 90 13 129 17 156 21 183 2 15 0
36 -6 47 -8 15 -7 28 5 50 9 17 17 56 18 88 2 31 8 75 14 97 34 119 62 236 68
283 7 52 8 53 26 36 23 -21 25 -20 34 34 10 59 -6 54 -58 -18 -23 -33 -46 -58
-52 -56 -24 7 -12 49 36 124 47 74 53 93 47 145 -1 6 2 38 6 70 7 52 6 57 -12
57 -22 0 -32 18 -32 58 l0 27 -19 -24 c-31 -40 -35 -5 -5 36 43 58 46 61 38
28 l-7 -30 28 28 c26 25 29 26 40 10 11 -15 15 -16 31 -3 19 17 53 87 60 127
3 14 13 42 23 62 16 32 20 74 12 141 -3 27 -38 -25 -66 -101 -15 -39 -38 -83
-52 -97 -14 -15 -22 -20 -20 -12 16 44 78 185 86 193 6 6 5 19 -1 33 -8 17 -8
31 0 48 12 27 5 41 -14 25 -8 -7 -14 -7 -19 1 -3 5 -3 10 2 10 4 0 19 10 33
21 24 20 24 21 3 16 -29 -6 -29 0 1 28 21 19 23 27 16 63 -5 27 -2 53 7 79 28
76 31 91 21 101 -6 6 7 28 41 63 34 36 61 79 82 129 17 41 46 91 64 112 19 20
39 47 45 60 17 31 51 58 76 58 11 0 39 14 62 31 27 20 50 29 62 26 13 -3 25 2
35 16 13 19 18 20 35 9 27 -17 43 -15 73 8 14 11 27 20 29 20 3 0 2 -21 -3
-47 -4 -27 -5 -49 -4 -51 2 -2 13 1 24 8 17 9 21 8 21 -5 0 -9 5 -13 11 -10 5
4 19 -1 30 -11 20 -18 21 -18 50 15 18 21 29 45 29 63 0 20 6 31 23 38 34 13
39 12 27 -9z m-1487 -1930 c16 -9 42 -40 59 -69 23 -40 33 -50 43 -42 9 8 23
-12 57 -82 62 -127 79 -184 112 -380 5 -28 11 -36 22 -31 13 5 13 0 -2 -36
-11 -27 -14 -53 -9 -77 4 -24 3 -34 -4 -29 -15 9 -14 -30 3 -95 18 -67 15
-152 -7 -202 -17 -39 -43 -54 -32 -18 8 24 3 25 -35 5 -38 -20 -40 -56 -5 -79
32 -21 34 -21 46 10 12 32 16 29 24 -14 3 -18 14 -56 25 -85 11 -29 20 -53 20
-54 0 -1 -10 -11 -22 -23 l-22 -20 27 0 c29 0 36 -14 12 -24 -17 -6 -20 -48
-6 -74 5 -9 12 -51 16 -92 16 -167 20 -200 40 -273 8 -32 15 -60 15 -62 0 -2
-17 -1 -37 2 -88 14 -128 58 -149 162 -17 88 -40 175 -59 226 -13 33 -39 121
-59 193 -41 151 -74 223 -156 337 -75 106 -106 159 -130 231 -53 151 -61 280
-30 454 31 172 54 219 124 251 44 19 72 17 119 -10z m5572 -151 c46 -28 86
-109 92 -184 4 -49 0 -74 -22 -130 -14 -39 -29 -94 -31 -123 -3 -29 -20 -85
-38 -125 -19 -40 -46 -113 -61 -163 -14 -49 -30 -99 -35 -110 -5 -11 -28 -72
-51 -135 -23 -63 -47 -128 -54 -145 -14 -32 -93 -279 -100 -314 -3 -12 -7 -31
-10 -43 -3 -13 -8 -39 -11 -58 -17 -111 -28 -158 -45 -191 -40 -80 -144 -124
-188 -80 -12 12 -20 25 -17 29 4 7 13 55 22 117 1 11 3 20 4 20 2 0 7 27 13
80 3 22 18 96 32 165 15 69 28 132 30 140 2 8 13 41 25 72 20 54 24 58 95 95
57 28 73 42 68 53 -4 8 -8 39 -9 69 -3 63 -23 89 -73 96 -39 5 -35 0 -47 56
-8 36 -7 50 4 68 14 20 13 24 -1 39 -16 15 -15 17 3 37 21 23 35 103 21 124
-8 12 -12 12 -25 2 -32 -27 -42 90 -12 147 20 38 126 166 141 170 12 3 49 62
72 115 13 30 13 28 13 58 0 15 5 19 15 15 9 -3 18 1 22 10 8 20 59 43 97 44
16 0 43 -9 61 -20z m-4285 -3391 c0 -5 -6 -12 -12 -16 -29 -18 -40 -41 -29
-61 7 -13 7 -22 -1 -30 -22 -22 -46 -12 -87 36 l-41 47 23 17 c12 9 33 26 46
37 l24 21 38 -22 c22 -12 39 -25 39 -29z"/>
<path d="M4275 6672 c-16 -2 -54 -10 -82 -18 -41 -11 -57 -12 -71 -3 -16 10
-25 8 -53 -13 -53 -39 -66 -44 -39 -13 l25 27 -24 -7 c-57 -18 -126 -61 -126
-79 0 -12 -21 -31 -60 -55 -93 -56 -202 -111 -208 -105 -3 3 1 17 9 32 15 30
18 52 7 52 -5 0 -35 -21 -68 -48 -51 -40 -56 -47 -37 -50 21 -3 21 -5 7 -33
-18 -34 -12 -36 33 -9 25 15 32 17 32 6 0 -8 -3 -16 -7 -18 -13 -5 -65 -89
-60 -95 3 -2 22 3 42 13 26 12 38 25 42 45 3 16 8 29 12 30 3 0 14 2 24 4 22
4 22 2 -13 -62 -17 -31 -29 -57 -28 -58 2 -2 24 9 50 24 36 21 44 30 37 41
-15 25 -10 37 21 50 17 7 44 29 60 48 20 24 49 43 90 59 l61 23 -7 -22 c-5
-18 -3 -20 12 -13 122 53 189 59 314 28 47 -12 114 -25 150 -28 36 -4 79 -13
95 -19 25 -11 36 -10 63 2 30 15 34 14 61 -6 20 -15 32 -18 37 -11 3 6 0 15
-7 20 -11 7 -9 9 6 10 34 2 80 6 83 8 1 0 -5 16 -14 34 -22 44 -64 87 -85 87
-10 0 -24 8 -31 19 -48 68 -217 118 -353 103z"/>
<path d="M5975 6601 c-33 -8 -92 -37 -111 -55 -7 -6 -29 -24 -48 -40 -28 -21
-36 -35 -36 -60 l0 -31 177 2 c176 1 177 1 153 -18 -23 -17 -24 -19 -5 -20 23
-2 38 -4 112 -13 45 -5 52 -4 46 10 -5 13 1 14 38 9 24 -4 51 -9 59 -10 8 -2
41 -4 73 -4 33 -1 56 -5 52 -10 -6 -10 7 -15 65 -26 81 -15 151 -49 216 -104
111 -94 129 -104 154 -91 17 9 32 9 66 0 57 -16 65 -8 25 26 -39 32 -34 41 9
19 18 -9 34 -15 36 -12 2 2 -7 29 -20 59 -16 35 -32 57 -45 61 -14 3 -21 13
-21 29 0 25 -103 162 -114 151 -3 -3 -6 -15 -6 -25 0 -19 -1 -19 -27 1 -14 12
-28 19 -30 17 -2 -2 10 -26 26 -54 34 -55 42 -92 11 -52 -17 22 -22 23 -39 13
-18 -11 -30 -9 -83 16 -35 16 -81 34 -103 40 -22 6 -51 21 -65 34 -75 69 -132
98 -110 56 18 -33 6 -33 -41 0 -24 16 -62 32 -84 35 -52 7 -70 11 -130 31 -57
19 -156 26 -200 16z"/>
<path d="M6520 6535 c0 -20 46 -63 84 -79 60 -25 62 -20 12 29 -25 25 -46 50
-46 55 0 6 -11 9 -25 8 -14 -1 -25 -7 -25 -13z"/>
<path d="M5580 6494 c-107 -21 -111 -23 -66 -44 38 -17 51 -18 166 -5 14 2 34
3 45 4 18 1 18 3 -5 25 -35 33 -54 36 -140 20z"/>
<path d="M3437 6343 c-37 -36 -67 -67 -67 -70 0 -8 88 5 108 16 24 13 41 56
35 90 -2 14 -5 26 -6 27 -1 2 -33 -27 -70 -63z"/>
<path d="M4207 6343 c-1 -1 -34 -4 -72 -7 -221 -20 -315 -42 -400 -94 -50 -31
-104 -90 -129 -139 -11 -21 -31 -50 -45 -65 -25 -28 -25 -28 -3 -28 29 0 28
-13 -3 -30 -31 -17 -33 -34 -2 -27 61 16 107 19 107 8 0 -6 6 -11 14 -11 14 0
15 28 1 50 -10 16 85 52 141 53 49 2 104 -17 104 -35 0 -4 -9 -8 -20 -8 -38 0
-20 -17 31 -28 65 -15 69 -15 69 3 0 12 4 14 19 5 13 -7 22 -7 26 0 3 6 -2 13
-12 17 -34 11 -183 98 -183 106 0 4 21 17 48 27 26 11 55 24 64 30 19 11 30
-3 42 -54 18 -76 104 -148 187 -159 47 -6 74 16 139 112 30 44 61 81 67 81 12
0 22 -7 76 -54 12 -10 41 -32 65 -49 23 -17 42 -33 42 -36 0 -6 -66 -11 -172
-15 -58 -2 -55 -13 8 -32 55 -16 176 -21 229 -10 11 3 32 5 48 5 15 1 27 5 27
10 0 20 -81 99 -109 104 -16 3 -59 29 -97 58 -37 28 -91 63 -118 78 -28 14
-53 29 -56 32 -3 4 -38 17 -77 29 -73 22 -83 22 -250 6 -23 -2 -52 -7 -65 -11
-22 -7 -23 -7 -5 13 10 11 26 19 35 18 9 -2 31 1 47 5 93 24 247 30 342 14 82
-15 175 -54 211 -90 31 -31 39 -26 22 14 -14 34 -50 58 -134 90 -46 17 -75 21
-157 18 -55 -1 -101 -3 -102 -4z"/>
<path d="M5958 6313 c-43 -14 -135 -80 -125 -89 2 -2 35 10 73 27 38 18 85 36
104 41 37 9 120 18 120 12 0 -2 -17 -12 -37 -23 -40 -20 -39 -21 14 -37 7 -2
21 6 31 17 42 44 155 47 268 6 48 -18 128 -66 121 -73 -3 -3 -25 0 -48 6 -80
22 -93 23 -214 24 -137 1 -153 -4 -305 -103 -47 -30 -107 -63 -135 -73 -54
-19 -87 -50 -78 -73 3 -9 -1 -15 -11 -15 -33 0 -16 -29 22 -37 45 -9 75 -6
164 17 l48 12 -31 29 c-25 24 -28 31 -19 48 12 24 122 101 143 101 10 0 17
-15 21 -44 18 -117 131 -181 247 -141 22 8 46 12 53 8 6 -5 69 -8 140 -8 l130
0 19 -37 c26 -48 47 -56 70 -26 l19 22 38 -22 c23 -13 56 -22 79 -22 44 0 46
2 31 30 -9 16 -7 20 12 25 37 8 71 13 98 14 44 2 7 19 -54 26 -69 7 -110 24
-61 25 29 1 28 2 -18 24 -54 27 -70 43 -98 104 -11 23 -32 50 -47 59 -15 10
-29 21 -32 24 -12 16 -111 68 -165 87 -55 18 -97 26 -225 39 -127 13 -316 11
-362 -4z m564 -258 c9 -4 15 -12 12 -19 -6 -16 -142 -71 -152 -62 -3 4 -2 10
4 14 5 4 23 24 38 44 28 37 49 42 98 23z"/>
<path d="M5601 6136 c-13 -15 -2 -49 32 -98 10 -16 14 -28 8 -28 -5 0 -17 10
-25 21 -28 41 -65 -2 -71 -81 -2 -19 -3 -38 -4 -43 -1 -4 -12 -5 -26 -1 -14 3
-25 2 -25 -3 0 -5 11 -16 25 -23 26 -14 34 -32 13 -27 -9 1 -12 -8 -10 -28 5
-41 13 -47 51 -32 31 11 34 10 57 -18 13 -16 24 -35 24 -41 0 -6 8 -18 18 -27
16 -14 21 -13 67 14 28 16 62 34 77 40 35 14 29 24 -39 79 -41 32 -54 38 -59
27 -3 -8 2 -30 11 -47 9 -18 15 -34 13 -36 -2 -2 -28 13 -58 33 -30 20 -49 38
-42 41 15 5 16 29 0 34 -7 3 -8 9 -3 19 5 8 8 23 7 34 -2 12 9 34 23 50 28 34
50 89 40 105 -6 9 -78 50 -88 50 -3 0 -10 -6 -16 -14z"/>
<path d="M4819 6043 c-1 -10 -1 -44 -1 -76 0 -58 0 -59 -26 -52 -43 11 -44 11
-49 -1 -2 -6 8 -16 22 -22 29 -14 31 -24 9 -58 -14 -21 -15 -31 -5 -63 12 -40
30 -55 56 -45 20 8 38 41 30 54 -9 15 8 12 32 -5 36 -25 70 -3 75 49 3 22 3
43 2 45 -2 2 -18 0 -36 -6 -22 -6 -33 -15 -32 -26 2 -21 -10 -22 -26 -2 -10
12 -10 18 1 31 9 11 14 45 14 96 1 75 -1 81 -23 89 -34 13 -42 11 -43 -8z"/>
<path d="M4610 4744 c1 -31 20 -64 37 -64 6 0 17 -8 24 -17 11 -13 11 -15 1
-9 -7 4 -25 5 -40 1 -23 -6 -24 -8 -10 -16 16 -9 14 -15 -19 -61 -33 -46 -37
-49 -45 -29 -4 11 -11 21 -16 21 -5 0 -33 -36 -62 -80 -53 -81 -69 -96 -50
-45 6 15 8 30 6 32 -3 3 -31 -11 -64 -32 -33 -20 -66 -35 -73 -33 -14 3 -144
-47 -214 -82 -23 -12 -55 -42 -75 -70 -34 -48 -50 -61 -50 -40 0 20 -33 9 -66
-22 -32 -31 -49 -63 -20 -39 11 9 18 8 30 -4 19 -19 21 -35 5 -35 -8 0 -9 -15
-3 -47 4 -27 7 -64 8 -85 0 -29 4 -35 18 -33 15 3 17 -1 12 -31 l-5 -35 26 17
c14 9 28 15 30 12 3 -3 1 -29 -5 -58 -8 -43 -7 -58 5 -77 9 -13 19 -23 23 -23
10 1 82 96 82 108 0 6 -21 26 -46 44 -43 31 -45 33 -22 38 12 3 23 11 22 18
-3 33 -5 34 -30 17 -36 -24 -39 -13 -10 33 34 54 43 58 51 20 13 -65 29 -97
53 -107 23 -11 24 -10 18 14 -4 17 -2 25 6 26 7 0 22 3 33 6 11 2 47 5 80 6
66 2 103 -14 165 -70 19 -17 46 -41 60 -52 14 -12 44 -40 66 -62 l42 -40 51
27 c29 14 72 29 97 32 40 4 46 2 51 -17 6 -23 6 -23 78 -26 28 -1 68 -5 90 -9
108 -19 232 -36 264 -36 39 0 218 44 343 84 l77 24 36 -28 c29 -23 42 -28 72
-23 31 5 35 4 31 -13 -2 -13 -10 -18 -26 -16 -14 2 -22 -2 -22 -12 0 -26 58
-12 93 22 18 17 55 42 82 56 28 14 61 40 75 58 84 108 242 228 302 228 11 0
18 7 18 20 0 20 1 20 38 5 60 -26 77 -50 73 -109 -1 -12 -6 -16 -17 -12 -14 6
-16 -1 -11 -51 4 -32 6 -66 7 -76 0 -26 16 -12 36 30 11 22 30 41 49 49 26 10
40 31 80 111 73 149 66 206 -34 299 -20 18 -49 36 -66 39 -16 3 -52 17 -80 30
-73 36 -155 39 -212 9 -50 -27 -73 -30 -92 -11 -11 10 -11 8 -2 -10 8 -15 8
-23 1 -23 -5 0 -10 -9 -10 -21 0 -11 -4 -17 -10 -14 -5 3 -10 14 -10 24 0 10
-17 31 -37 47 -60 44 -189 180 -204 214 -17 37 -58 50 -139 45 -98 -6 -174
-39 -318 -138 -69 -47 -72 -51 -56 -68 16 -18 14 -20 -39 -44 l-56 -26 -43 24
c-30 16 -44 32 -50 54 -9 34 -79 87 -163 124 -25 11 -43 24 -40 29 3 5 -8 24
-24 42 -43 49 -159 86 -177 57 -6 -11 -32 -9 -66 6 -15 6 -18 2 -18 -21z m669
-469 c23 -55 72 -115 92 -115 6 0 13 9 16 20 6 22 18 26 28 10 3 -6 20 -17 37
-26 29 -15 32 -15 58 5 l28 20 16 -22 15 -22 0 23 c1 28 8 28 30 1 16 -20 18
-20 34 -4 16 16 19 15 46 -7 101 -80 101 -80 93 -42 -9 50 22 20 34 -32 8 -36
13 -45 18 -31 5 9 11 17 15 17 11 0 32 -48 23 -53 -7 -4 -59 -17 -92 -23 -35
-6 -47 -12 -94 -42 -28 -18 -57 -33 -65 -33 -9 -1 -25 -3 -36 -4 -11 -1 -51
-5 -89 -9 -37 -3 -71 -8 -75 -11 -29 -18 -272 -28 -326 -14 -35 9 -102 18
-195 25 -121 9 -153 23 -144 61 4 13 2 23 -3 23 -5 0 -30 13 -54 29 -39 26
-49 29 -83 21 -21 -5 -43 -13 -48 -18 -9 -9 -34 -3 -66 13 -1 1 6 23 15 49 19
50 39 57 36 10 -2 -29 -2 -29 13 6 14 31 17 33 29 17 16 -22 21 -22 29 6 l6
22 18 -23 18 -23 32 32 c18 17 32 29 32 26 0 -4 19 1 42 9 39 14 44 13 55 -3
7 -9 13 -26 13 -37 0 -18 4 -16 29 12 33 36 41 39 41 17 0 -11 17 -4 59 25 34
22 63 36 66 30 16 -26 149 25 161 62 7 22 24 24 24 2 0 -8 5 -12 10 -9 6 3 10
16 10 29 0 22 7 36 19 36 3 0 17 -25 30 -55z"/>
<path d="M5396 3414 c-12 -11 -39 -17 -88 -20 -67 -3 -110 -6 -288 -20 -41 -3
-79 -8 -83 -11 -11 -7 -59 -84 -55 -89 2 -2 39 10 82 27 67 26 81 28 93 17 12
-12 11 -18 -7 -40 -19 -25 -27 -58 -14 -58 3 0 36 20 73 45 37 25 70 45 74 45
3 0 13 -13 21 -29 9 -16 31 -38 49 -49 19 -11 43 -34 53 -51 10 -17 23 -31 29
-31 5 1 20 23 33 49 32 69 90 133 113 126 13 -4 19 -1 20 9 1 9 3 21 4 26 1 6
3 12 4 15 0 3 12 -1 24 -10 22 -14 28 -13 75 6 55 23 60 30 37 49 -10 8 -35
10 -87 4 -89 -9 -108 -9 -129 0 -10 4 -23 0 -33 -10z"/>
<path d="M8135 6647 c-16 -5 -31 -11 -33 -12 -5 -4 47 -113 57 -119 6 -4 13 3
16 16 6 26 2 114 -5 121 -3 2 -18 0 -35 -6z"/>
<path d="M6760 2683 c-29 -12 -41 -33 -38 -69 l3 -37 33 50 c41 64 41 71 2 56z"/>
<path d="M4710 2035 c0 -6 28 -17 63 -24 98 -19 108 -21 170 -35 38 -9 57 -10
54 -3 -5 16 -287 77 -287 62z"/>
</g>
</svg>
