<?xml version="1.0" standalone="no"?>
<!DOCTYPE svg PUBLIC "-//W3C//DTD SVG 20010904//EN"
 "http://www.w3.org/TR/2001/REC-SVG-20010904/DTD/svg10.dtd">
<svg version="1.0" xmlns="http://www.w3.org/2000/svg"
 width="1944.000000pt" height="1944.000000pt" viewBox="0 0 1944.000000 1944.000000"
 preserveAspectRatio="xMidYMid meet">
<metadata>
Created by potrace 1.11, written by Peter Selinger 2001-2013
</metadata>
<g transform="translate(0.000000,1944.000000) scale(0.100000,-0.100000)"
fill="#000000" stroke="none">
<path d="M9959 18906 c-4 -4 -191 -39 -287 -53 -18 -3 -35 -9 -38 -14 -7 -12
-55 -11 -107 3 -41 11 -46 9 -108 -25 -105 -59 -151 -70 -256 -65 -99 6 -117
0 -156 -49 -23 -28 -43 -30 -50 -3 -8 31 -51 35 -112 10 -30 -12 -83 -24 -117
-26 -187 -10 -222 -20 -361 -92 l-91 -47 -138 3 c-158 3 -193 -6 -268 -74 -41
-37 -47 -39 -110 -40 -54 0 -78 -6 -121 -29 -96 -51 -223 -112 -344 -165 -68
-30 -190 -124 -334 -259 -76 -70 -185 -161 -242 -202 -142 -100 -174 -131
-235 -225 -31 -47 -77 -102 -110 -130 -32 -27 -152 -143 -266 -258 l-208 -209
0 -46 c0 -50 -12 -73 -70 -136 -20 -22 -62 -76 -92 -120 -30 -44 -91 -131
-135 -192 -71 -98 -134 -210 -172 -307 -6 -15 -29 -92 -51 -170 -21 -77 -42
-149 -45 -158 -5 -12 -1 -17 14 -20 21 -3 21 -3 -4 -50 -25 -48 -45 -134 -91
-398 -24 -138 -73 -388 -115 -585 -11 -49 -31 -150 -46 -224 -26 -131 -26
-134 -7 -148 18 -13 18 -16 -3 -101 -12 -48 -24 -123 -26 -167 -3 -53 -12 -95
-26 -125 -30 -65 -27 -100 10 -136 32 -30 31 -26 12 -118 -4 -23 -1 -33 18
-47 l24 -18 -19 -48 c-34 -88 -55 -183 -49 -216 3 -18 15 -48 26 -68 19 -35
19 -38 2 -88 -9 -29 -15 -55 -11 -58 10 -11 34 6 38 27 7 44 23 17 23 -37 0
-54 -1 -58 -22 -55 -22 3 -23 1 -23 -87 0 -69 6 -109 25 -168 40 -125 32 -163
-32 -163 -44 0 -52 23 -19 52 l27 23 -38 39 c-115 118 -248 171 -369 146 -103
-21 -207 -93 -269 -186 -52 -78 -85 -173 -114 -329 -6 -27 -17 -88 -26 -135
-10 -49 -19 -162 -22 -265 -8 -258 14 -393 99 -633 52 -145 103 -230 330 -552
95 -135 149 -269 209 -515 35 -149 79 -289 114 -369 25 -55 50 -153 80 -306
40 -205 80 -304 154 -383 67 -73 182 -124 295 -129 l60 -3 11 39 11 40 12 -45
c38 -142 51 -329 30 -430 -11 -53 -10 -59 15 -101 14 -25 38 -53 52 -62 31
-20 31 -28 3 -41 -20 -9 -24 -21 -31 -92 -7 -76 -6 -85 17 -129 19 -36 23 -52
15 -71 -12 -32 -12 -80 1 -88 6 -4 19 4 30 17 26 32 28 22 33 -162 3 -85 10
-171 17 -190 7 -19 28 -77 47 -128 28 -77 34 -110 37 -190 4 -106 9 -125 91
-331 30 -76 55 -146 55 -154 0 -9 5 -29 11 -44 6 -15 15 -37 20 -48 4 -11 37
-82 74 -158 36 -75 79 -177 95 -225 36 -106 100 -329 100 -345 0 -7 -49 -42
-108 -78 -59 -36 -172 -106 -251 -154 -230 -142 -317 -215 -489 -414 -95 -109
-501 -358 -757 -464 -142 -59 -349 -114 -495 -132 -214 -26 -847 -147 -1151
-219 -147 -35 -470 -92 -684 -121 -66 -9 -165 -22 -220 -30 -115 -16 -454 -61
-565 -75 -41 -5 -138 -12 -215 -15 -260 -12 -396 -45 -615 -148 -113 -54 -592
-217 -636 -217 -12 0 -45 -5 -73 -12 l-51 -11 0 -2079 0 -2078 9720 0 9720 0
0 1624 0 1623 -70 7 c-70 6 -209 48 -310 93 -113 51 -203 82 -298 103 -132 30
-264 75 -342 117 -36 20 -92 50 -125 68 -33 18 -98 42 -145 54 -80 20 -692
145 -1200 246 -124 25 -243 49 -265 55 -22 5 -70 16 -107 25 -96 23 -155 44
-318 118 -224 100 -1139 550 -1175 577 -5 4 -44 25 -85 48 -85 46 -141 79
-342 208 -79 50 -190 117 -248 148 -210 114 -1029 521 -1035 514 -4 -4 -18
-92 -31 -195 -13 -103 -26 -204 -28 -224 -3 -20 -10 -173 -15 -340 -17 -481
-20 -546 -31 -679 -18 -208 -47 -315 -112 -410 -14 -19 -78 -114 -143 -210
-222 -327 -367 -497 -502 -588 -34 -23 -140 -83 -235 -133 -95 -50 -202 -108
-238 -129 -62 -36 -101 -58 -207 -116 -27 -15 -61 -34 -78 -44 -38 -22 -63
-36 -395 -215 -69 -37 -129 -71 -135 -75 -5 -4 -48 -21 -95 -39 -47 -18 -95
-37 -108 -42 -40 -16 -148 -10 -204 10 -146 53 -241 49 -378 -18 -74 -36 -76
-36 -215 -38 -77 -1 -191 2 -253 6 -97 8 -117 12 -138 31 -23 23 -24 23 -75 7
-65 -21 -117 -21 -191 -1 -51 15 -74 15 -171 5 -62 -6 -130 -11 -151 -11 -38
0 -38 0 -32 32 4 18 9 47 13 63 l6 30 -23 -28 c-31 -40 -63 -50 -150 -47 -138
3 -135 2 -138 32 -4 31 -23 36 -42 13 -7 -8 -25 -15 -41 -15 -132 0 -484 140
-628 251 -52 39 -73 49 -104 49 -33 0 -48 8 -97 53 -45 41 -82 63 -174 101
-92 38 -168 82 -354 206 -263 175 -397 282 -502 401 -364 412 -588 983 -641
1628 -18 225 12 1088 40 1139 5 9 18 -15 36 -65 15 -43 63 -152 107 -243 43
-90 95 -204 114 -253 34 -84 74 -249 74 -303 0 -28 5 -29 40 -9 38 22 60 19
60 -9 0 -64 58 -144 151 -207 73 -49 99 -83 99 -126 0 -67 52 -128 133 -158
26 -10 50 -22 53 -26 3 -5 0 -37 -7 -70 -12 -60 -11 -63 10 -80 17 -14 33 -17
64 -13 55 7 88 -14 70 -45 -15 -24 -15 -24 85 -61 42 -15 78 -33 80 -39 7 -20
-28 -24 -69 -8 -56 22 -48 6 19 -38 31 -21 73 -51 93 -66 20 -16 47 -28 60
-28 13 1 50 -14 82 -34 76 -46 87 -56 87 -76 0 -30 50 -67 205 -154 157 -88
360 -208 458 -271 85 -55 87 -55 87 -7 0 50 14 55 133 49 60 -3 99 -12 147
-32 136 -59 157 -64 210 -53 41 8 54 7 75 -7 26 -17 32 -45 14 -63 -21 -21 9
-22 131 -3 115 17 150 18 150 1 0 -4 6 -15 13 -25 12 -16 17 -14 80 19 90 46
131 46 217 0 38 -21 66 -31 68 -25 2 6 15 23 27 38 22 26 28 27 112 26 69 0
105 -7 167 -28 l79 -27 26 25 c45 43 71 47 290 44 205 -3 206 -3 262 23 52 25
177 59 213 59 24 0 19 -26 -8 -47 -13 -11 -74 -34 -136 -53 -102 -31 -134 -49
-116 -67 4 -4 30 1 59 12 46 16 354 132 399 150 10 4 27 22 39 41 21 35 45 42
79 24 15 -8 35 -1 97 32 136 72 228 117 240 118 7 0 46 15 86 34 87 40 217
146 714 584 247 216 270 244 258 311 -5 28 -2 41 9 51 17 14 19 10 16 -34 -1
-19 2 -27 11 -24 30 10 50 56 58 132 10 87 33 129 72 134 19 2 29 -6 46 -35
l21 -38 21 50 c45 107 55 120 84 117 28 -4 28 -3 21 45 -7 59 8 99 65 176 24
31 41 65 41 80 0 47 37 126 98 210 77 106 101 155 114 230 6 34 33 109 60 167
56 119 50 106 113 260 26 63 67 156 92 205 69 138 101 221 163 425 17 58 36
114 40 125 62 149 196 506 224 595 20 63 58 228 85 365 48 246 61 328 102 615
43 306 37 286 77 266 123 -61 281 -27 410 89 119 108 171 238 203 510 22 193
136 562 332 1070 46 121 101 272 122 335 20 63 55 171 77 240 22 69 62 170 88
225 62 129 60 124 70 235 7 78 17 116 57 215 l48 120 0 125 c0 105 -4 136 -23
195 -53 156 -147 277 -265 337 -54 28 -72 32 -144 32 -80 1 -84 0 -195 -57
-62 -31 -118 -57 -125 -57 -14 0 -6 103 14 180 69 254 78 381 64 830 -8 255
-15 344 -30 415 -35 162 -61 295 -61 314 0 14 5 18 20 14 17 -5 20 -1 19 28
-1 57 -17 201 -28 249 -6 25 -26 133 -46 240 -61 338 -66 363 -90 465 -28 116
-52 193 -90 288 -16 39 -25 78 -22 93 15 80 -43 247 -144 411 -23 37 -60 98
-81 135 -22 37 -66 97 -98 132 -45 49 -60 74 -65 108 -4 23 -20 61 -35 83 -25
36 -108 189 -150 275 -9 19 -23 64 -30 100 -15 82 -30 110 -99 190 -175 204
-436 480 -453 480 -4 0 -28 9 -53 21 -36 17 -45 26 -45 48 -1 92 -100 176
-260 222 -104 29 -216 90 -297 160 -37 32 -96 79 -129 104 -84 62 -304 174
-444 226 -63 23 -129 50 -145 59 -145 81 -197 101 -355 137 -116 26 -294 64
-335 73 -62 12 -345 71 -390 81 -68 16 -215 38 -450 69 -104 14 -189 29 -245
43 -25 6 -115 11 -200 12 -126 1 -161 4 -187 18 -30 16 -74 23 -84 13z m-2269
-2398 c0 -6 -10 -22 -22 -35 -12 -13 -20 -24 -17 -26 3 -3 234 7 324 13 52 4
57 2 53 -27 -3 -26 -7 -28 -54 -31 -43 -2 -51 -6 -48 -20 3 -10 -25 -54 -71
-111 -50 -62 -72 -98 -66 -104 7 -7 41 4 101 31 50 23 98 42 106 42 35 0 4
-33 -71 -78 -73 -43 -94 -69 -55 -66 15 1 221 36 315 54 133 24 132 24 140 -8
3 -16 20 -43 38 -60 51 -50 100 -66 202 -66 l90 -1 5 -40 c5 -39 6 -40 48 -43
60 -4 54 -25 -15 -52 -56 -22 -99 -50 -77 -50 6 0 46 11 90 25 43 13 95 26
113 27 32 3 37 -1 59 -39 13 -24 28 -43 33 -43 5 0 9 20 9 45 0 37 3 45 19 45
13 0 20 -10 25 -32 17 -85 27 -108 46 -108 25 0 25 -12 0 -35 -53 -48 42 -48
125 0 83 49 146 78 152 71 4 -3 -2 -24 -12 -46 -10 -22 -16 -42 -13 -45 3 -3
29 -1 58 5 74 14 100 13 100 -5 0 -9 -23 -26 -55 -40 -30 -13 -55 -27 -55 -30
0 -4 22 -4 49 0 48 6 48 6 72 -32 l23 -38 7 58 c5 42 16 72 42 112 35 52 71
83 80 68 2 -5 -8 -52 -23 -106 -15 -53 -23 -100 -18 -103 4 -3 65 -2 134 2
l125 7 -21 22 c-44 47 15 47 90 0 63 -41 71 -42 95 -15 23 25 14 46 -24 53
-54 11 -37 33 30 41 139 14 209 3 249 -39 29 -31 50 -32 79 -1 13 13 35 27 49
31 40 9 72 33 82 59 9 25 54 43 163 67 46 10 71 10 130 0 105 -19 114 -24 145
-88 15 -32 32 -57 37 -56 6 1 14 27 19 58 5 33 13 55 21 55 7 0 39 -31 70 -70
31 -38 61 -70 66 -70 5 0 36 34 71 75 34 41 66 71 70 67 5 -5 3 -34 -3 -66 -6
-32 -8 -60 -5 -63 3 -3 27 13 54 36 46 39 72 51 72 33 0 -4 -5 -13 -12 -20 -9
-9 -9 -15 -1 -23 11 -11 27 11 103 139 30 49 40 40 40 -38 0 -80 17 -94 46
-37 70 136 164 193 214 130 11 -14 19 -31 17 -37 -2 -6 -32 -16 -66 -22 -69
-13 -76 -17 -67 -39 5 -14 25 -16 143 -15 76 1 146 -1 155 -5 10 -4 44 3 77
14 33 11 67 18 75 15 9 -3 18 -22 21 -42 10 -58 22 -81 49 -88 28 -7 115 22
122 41 3 6 -2 77 -11 158 -19 186 -19 187 4 187 16 0 19 -11 26 -100 3 -55 11
-100 16 -100 6 0 22 14 36 30 29 35 37 37 60 10 24 -28 43 -25 43 6 0 14 7 72
16 130 22 138 38 139 70 1 12 -54 25 -101 28 -104 12 -12 25 11 37 61 21 97
41 99 53 6 15 -115 53 -155 43 -45 -3 35 -2 67 3 70 4 3 22 -7 39 -21 17 -14
38 -24 45 -21 8 3 17 28 21 56 7 52 28 69 38 31 7 -27 23 -25 31 2 9 38 22 9
46 -109 25 -121 32 -139 50 -128 8 5 10 28 5 80 -5 49 -4 75 4 79 6 4 31 -25
60 -71 91 -143 110 -160 188 -171 47 -7 48 -8 53 -47 3 -27 10 -40 20 -40 11
0 17 19 23 80 13 137 33 129 73 -30 15 -63 32 -115 35 -115 4 0 11 21 16 48 4
26 12 46 17 45 5 -1 19 -26 31 -55 12 -29 36 -83 53 -120 35 -76 54 -135 102
-323 66 -261 64 -246 65 -482 0 -216 -1 -222 -22 -245 -13 -14 -23 -31 -23
-38 0 -8 25 -39 55 -70 36 -37 68 -83 95 -140 23 -47 50 -94 59 -105 10 -11
26 -56 35 -100 25 -113 26 -117 39 -112 7 2 18 21 26 43 18 48 19 50 30 38 10
-10 -15 -194 -28 -207 -5 -5 -21 7 -36 27 -25 32 -55 48 -55 29 0 -5 26 -113
58 -241 33 -128 55 -235 51 -238 -4 -2 -28 24 -53 60 -25 35 -54 70 -63 77
-15 12 -16 12 -10 -6 30 -97 77 -272 87 -324 15 -81 48 -155 134 -295 52 -86
75 -138 107 -240 62 -195 99 -451 75 -509 -11 -28 -9 -39 15 -102 43 -110 69
-291 69 -474 0 -86 7 -212 15 -281 40 -334 40 -328 15 -400 -23 -66 -23 -67
-5 -123 10 -32 17 -70 17 -85 -10 -212 -15 -252 -48 -380 -39 -150 -60 -202
-79 -202 -7 0 -15 10 -19 22 -4 18 -8 20 -17 11 -10 -10 -10 -21 -1 -51 24
-78 8 -156 -55 -272 -66 -121 -115 -280 -147 -470 -14 -81 -20 -98 -43 -117
-26 -21 -26 -23 -10 -41 22 -24 21 -54 -3 -102 -18 -36 -20 -59 -20 -255 0
-210 -1 -216 -22 -233 -79 -62 -102 -114 -113 -257 -4 -44 -13 -102 -21 -129
-18 -64 -18 -66 6 -66 11 0 20 -3 20 -8 0 -12 -58 -210 -65 -222 -3 -5 -15
-10 -26 -10 -57 0 -114 -58 -125 -125 -3 -24 -15 -52 -25 -61 -10 -9 -19 -30
-19 -46 0 -28 13 -37 25 -18 3 6 12 10 19 10 10 0 12 -23 8 -102 -2 -57 -8
-107 -12 -111 -4 -5 -20 7 -35 27 -15 20 -33 36 -39 36 -6 0 -18 -20 -25 -45
-7 -25 -19 -45 -26 -45 -6 0 -32 25 -56 55 -62 78 -75 71 -72 -35 1 -47 5
-122 8 -167 4 -51 2 -83 -4 -83 -5 0 -28 21 -51 47 l-42 48 6 -42 c3 -24 2
-43 -3 -43 -5 0 -23 16 -40 35 -17 19 -34 35 -38 35 -19 0 -44 -100 -37 -148
7 -56 2 -62 -73 -86 -60 -20 -65 -25 -82 -91 -17 -71 -33 -84 -56 -48 l-18 28
-11 -44 c-12 -50 -44 -79 -97 -90 -32 -6 -34 -9 -37 -55 -3 -42 -9 -54 -46
-90 -24 -22 -50 -52 -59 -66 -16 -23 -16 -25 15 -57 l32 -33 -39 -81 c-58
-119 -118 -169 -202 -169 -26 0 -33 -9 -54 -69 -15 -44 -41 -72 -55 -59 -3 4
-21 59 -40 124 -18 64 -36 119 -39 122 -3 3 -11 0 -18 -7 -17 -17 -13 -101 7
-139 21 -40 20 -49 -3 -55 -16 -4 -18 -12 -14 -58 2 -30 9 -71 15 -92 12 -40
7 -53 -16 -44 -8 3 -18 26 -21 51 -4 25 -13 53 -20 63 -11 15 -17 15 -40 5
-24 -11 -26 -16 -20 -48 5 -29 1 -42 -19 -68 -18 -24 -31 -63 -44 -132 -17
-92 -20 -99 -42 -99 -22 0 -27 9 -49 89 -28 95 -42 113 -84 102 -27 -6 -27 -7
-27 -94 0 -99 -7 -114 -61 -131 -54 -17 -77 -48 -81 -105 -3 -46 -5 -49 -38
-60 -39 -12 -51 -44 -25 -66 25 -21 17 -32 -22 -29 l-38 4 2 -57 c1 -42 -2
-58 -13 -62 -11 -4 -22 10 -40 49 -13 31 -24 60 -24 65 0 6 -6 10 -13 10 -12
0 -37 -120 -37 -176 0 -11 -6 -28 -13 -38 -11 -16 -17 -14 -70 24 l-57 41 -18
-30 c-10 -17 -34 -60 -53 -96 -18 -36 -39 -65 -46 -65 -6 0 -33 34 -59 75 -26
41 -51 75 -54 75 -9 0 -17 -61 -26 -193 -9 -133 -35 -147 -48 -26 -7 60 -22
83 -37 56 -5 -8 -25 -34 -45 -58 -46 -55 -76 -114 -77 -153 0 -17 14 -63 32
-103 19 -40 31 -79 28 -88 -9 -22 -45 -18 -60 8 -89 147 -98 157 -137 157 -78
0 -99 72 -51 175 17 37 28 71 25 76 -7 12 -99 59 -114 59 -8 0 -9 -11 -5 -30
6 -27 0 -37 -56 -95 -34 -36 -68 -65 -75 -65 -8 0 -15 24 -19 68 -4 37 -12 73
-17 79 -7 9 -1 29 20 67 34 60 32 75 -7 47 -14 -10 -37 -22 -51 -26 -38 -11
-70 -34 -70 -50 0 -8 14 -30 31 -50 37 -41 42 -91 15 -142 -26 -52 -21 -82 25
-125 32 -30 45 -55 65 -118 14 -43 26 -92 27 -107 2 -27 -1 -29 -75 -46 -43
-11 -78 -24 -78 -31 0 -6 7 -24 15 -40 23 -43 8 -46 -25 -6 -32 38 -51 89 -69
188 -13 66 -39 132 -53 132 -10 0 -100 -68 -109 -82 -4 -6 4 -34 16 -62 31
-68 43 -171 21 -179 -9 -4 -28 5 -46 20 -17 14 -33 23 -36 20 -3 -3 -1 -22 5
-44 18 -62 14 -77 -23 -97 -19 -10 -38 -16 -44 -12 -8 5 -14 88 -28 441 -3 83
-9 153 -13 157 -3 3 -28 8 -56 10 l-50 3 3 -105 c1 -58 4 -114 6 -125 3 -11 5
-32 5 -47 1 -21 6 -27 29 -30 l27 -3 3 -128 c2 -116 1 -128 -14 -125 -10 2
-22 20 -29 43 -6 22 -24 64 -39 93 -35 66 -46 113 -36 157 7 29 2 47 -26 105
-21 45 -39 70 -50 70 -12 0 -15 -6 -10 -22 4 -13 9 -39 12 -58 5 -31 1 -38
-36 -69 -35 -28 -46 -32 -75 -27 -18 4 -44 15 -57 25 -20 17 -23 29 -27 110
-2 77 1 101 19 147 20 49 26 55 49 52 24 -3 26 0 23 27 -6 45 -17 54 -59 45
-35 -8 -53 -23 -53 -46 0 -28 -32 -114 -42 -114 -7 0 -29 16 -49 36 -21 20
-41 34 -47 30 -5 -3 -12 -42 -16 -88 -4 -45 -9 -84 -12 -87 -2 -2 -17 7 -32
20 -89 80 -94 74 -22 -26 28 -39 70 -109 94 -156 24 -47 60 -108 80 -136 44
-62 66 -112 66 -153 0 -46 -28 -36 -65 23 -34 53 -66 68 -94 43 -33 -30 -44
-20 -37 34 6 44 4 50 -11 50 -13 0 -42 47 -107 175 -48 96 -90 175 -92 175 -2
0 -10 -21 -17 -47 -16 -54 -29 -63 -44 -31 -10 22 -11 22 -26 -14 -9 -21 -20
-38 -25 -38 -15 0 -92 71 -92 85 0 7 16 25 35 39 40 31 43 41 14 49 -22 6 -22
18 -3 120 4 19 2 27 -9 27 -14 0 -48 -60 -64 -115 -8 -28 -12 -30 -57 -29
l-48 0 -79 -118 c-101 -151 -141 -160 -84 -20 14 34 25 65 25 70 0 5 -11 14
-25 20 -32 15 -32 41 -1 95 13 23 26 56 28 72 3 27 0 30 -22 27 -14 -2 -41 -4
-60 -5 l-35 -2 -5 63 c-4 46 -10 66 -23 73 -24 14 -21 25 16 59 l32 29 -28 1
c-16 0 -60 -5 -98 -11 -39 -6 -73 -8 -77 -5 -3 4 7 33 23 66 16 33 26 62 24
64 -3 3 -29 -6 -58 -19 -63 -30 -84 -32 -77 -7 6 21 26 132 26 145 0 6 -44 8
-116 4 -97 -4 -125 -10 -167 -31 -58 -28 -70 -26 -57 10 14 37 5 44 -56 44
-30 0 -54 3 -54 8 0 4 20 27 45 50 25 23 45 49 45 58 0 9 -14 29 -30 44 -58
54 -30 73 51 35 32 -16 61 -26 64 -23 11 10 -65 156 -90 172 -33 21 -26 31 30
45 51 13 51 10 -2 94 l-24 38 -50 -37 c-60 -44 -119 -55 -167 -30 -44 23 -40
43 11 56 159 42 166 57 25 51 -94 -3 -98 -2 -98 18 0 17 18 30 85 63 47 23 85
46 85 50 0 5 -20 8 -45 8 -51 0 -54 4 -23 37 28 30 18 38 -31 25 -49 -12 -60
-2 -54 51 5 38 49 87 79 87 9 0 12 5 9 10 -21 34 -138 -13 -201 -82 -33 -36
-44 -59 -59 -119 -10 -41 -22 -78 -27 -84 -9 -10 -38 18 -99 99 -28 38 -32 40
-82 38 -28 -1 -63 4 -77 11 -23 12 -25 19 -25 77 l0 65 -60 12 c-33 7 -65 11
-71 9 -6 -3 -15 -22 -19 -43 -4 -21 -13 -53 -21 -72 -12 -28 -16 -31 -29 -21
-8 7 -15 19 -15 27 0 8 -4 11 -10 8 -5 -3 -10 -21 -10 -40 0 -38 -8 -65 -20
-65 -20 0 -111 83 -106 96 3 7 8 70 12 139 7 125 7 126 -18 153 -38 40 -48 65
-48 116 0 80 -26 55 -50 -47 -7 -32 -18 -56 -23 -54 -5 1 -29 41 -54 87 -24
47 -49 89 -54 94 -5 6 -9 -23 -9 -77 0 -58 -4 -87 -11 -87 -7 0 -41 26 -77 57
l-65 57 6 68 c6 68 0 81 -23 53 -31 -37 -50 -8 -50 80 0 100 -22 162 -37 105
-7 -26 -20 -26 -28 0 -10 31 -22 24 -32 -17 -4 -20 -14 -38 -21 -41 -9 -3 -12
27 -12 122 0 115 -7 146 -25 116 -11 -18 -32 -11 -38 12 -6 21 -7 21 -26 4
-11 -10 -22 -13 -25 -8 -3 6 -7 62 -9 124 l-3 114 -52 106 c-29 58 -52 113
-52 122 0 9 7 30 15 46 14 27 5 54 -10 30 -3 -5 -12 -10 -19 -10 -14 0 -20 30
-51 275 -9 66 -25 190 -36 275 -11 85 -24 189 -29 230 -6 41 -19 111 -30 155
-11 44 -27 143 -35 220 -28 252 -59 389 -121 524 -24 51 -34 88 -34 122 0 26
-16 121 -36 211 -84 381 -113 562 -134 843 -14 189 -13 315 5 540 19 251 58
631 85 820 7 52 5 63 -11 81 -24 26 -24 26 8 93 24 49 27 70 30 168 2 98 5
118 28 160 14 26 25 63 25 81 0 32 12 82 69 286 29 103 49 266 34 266 -5 0
-26 -23 -47 -52 -36 -48 -40 -50 -52 -33 -8 10 -16 32 -20 50 -5 26 5 48 63
140 137 219 138 220 126 288 -7 46 -6 82 5 146 22 131 23 125 -23 131 -43 5
-51 20 -54 103 -1 45 -14 47 -38 7 -19 -33 -37 -38 -51 -14 -6 12 6 38 45 97
30 45 64 91 74 102 20 20 20 20 13 -10 -4 -16 -11 -38 -15 -47 -5 -9 -9 -21
-9 -27 0 -22 19 -10 51 34 19 24 39 44 44 45 6 0 18 -14 27 -31 l18 -30 35 26
c49 38 68 74 111 210 20 66 47 141 60 167 18 36 24 64 24 116 0 78 -8 132 -21
132 -19 0 -71 -95 -102 -188 -31 -94 -72 -166 -132 -236 -35 -41 -40 -27 -11
35 13 30 49 117 81 194 31 77 63 147 71 156 19 21 18 38 -3 61 -17 19 -16 23
4 81 12 34 20 63 18 65 -2 3 -19 -1 -36 -7 -56 -19 -56 4 0 45 28 21 51 42 51
47 0 4 -16 5 -35 1 -19 -3 -35 -2 -35 2 0 5 19 25 42 45 l42 36 0 124 c1 115
3 128 30 183 24 52 27 67 22 114 -5 44 -3 59 10 73 10 11 23 19 29 19 7 0 18
13 24 29 7 15 30 41 51 57 21 16 45 40 53 54 25 42 107 240 107 258 0 9 21 38
48 65 26 26 72 85 102 130 60 89 99 121 157 130 22 4 74 30 122 62 67 44 91
55 124 55 33 0 45 6 67 32 l26 31 47 -27 47 -28 43 25 c24 14 49 33 57 41 7 9
19 16 27 16 13 0 14 -11 8 -67 -3 -38 -9 -78 -12 -90 -6 -27 6 -29 48 -8 36
19 49 13 49 -23 0 -25 1 -25 14 -6 14 18 16 18 53 -19 l39 -37 52 62 c48 58
52 67 52 114 0 55 10 70 57 84 41 12 63 12 63 -2z m-1525 -439 c-26 -57 -54
-122 -64 -144 -10 -22 -31 -68 -46 -102 -27 -60 -45 -80 -45 -48 0 26 -16 16
-49 -30 -32 -45 -157 -143 -168 -131 -3 3 21 43 54 88 33 46 113 160 178 253
163 234 166 238 176 228 6 -6 -9 -51 -36 -114z m-480 -1099 c0 -19 4 -45 8
-57 6 -16 3 -32 -9 -53 -28 -46 -7 -49 31 -5 23 28 37 37 44 30 8 -8 -4 -47
-39 -133 -67 -165 -76 -182 -102 -182 -18 0 -20 -4 -14 -32 10 -48 22 -55 51
-28 14 13 28 21 31 18 3 -3 -3 -37 -14 -75 -11 -37 -23 -80 -26 -95 -4 -16
-13 -28 -20 -28 -20 0 -66 97 -66 140 0 31 32 132 79 253 26 67 6 62 -53 -13
-80 -101 -118 -199 -162 -420 -10 -47 -28 9 -28 85 1 59 7 85 43 170 23 55 67
172 98 260 59 171 81 208 123 203 21 -3 25 -8 25 -38z m8347 -785 c16 -77 37
-185 47 -240 11 -55 21 -106 23 -114 1 -8 -4 -16 -13 -18 -12 -3 -22 13 -38
59 -12 35 -28 77 -36 93 -7 17 -19 86 -25 155 -6 69 -14 145 -17 169 -5 38 -4
43 12 39 16 -2 24 -28 47 -143z m-8806 -112 c-3 -27 -17 -84 -31 -128 -38
-121 -31 -196 22 -257 15 -17 10 -38 -9 -38 -6 0 -28 16 -49 35 -23 21 -45 32
-54 29 -10 -4 -15 0 -15 12 0 25 26 173 35 199 19 54 89 195 98 195 6 0 7 -19
3 -47z m49 -1096 c-4 -19 0 -60 9 -94 26 -99 22 -133 -19 -173 -30 -30 -37
-32 -49 -20 -34 37 -48 171 -26 252 11 39 42 68 73 68 15 0 17 -5 12 -33z
m-463 -133 c65 -33 95 -63 149 -153 53 -90 71 -106 83 -75 3 8 11 12 16 9 16
-10 158 -297 190 -386 37 -99 62 -203 96 -399 14 -85 30 -159 35 -164 5 -5 15
-4 24 4 25 21 25 8 0 -63 -27 -73 -31 -130 -14 -190 12 -44 7 -56 -16 -37 -13
11 -15 7 -15 -27 0 -22 11 -90 25 -151 31 -135 31 -206 4 -320 -22 -89 -43
-122 -80 -122 -23 0 -24 9 -3 38 23 33 12 37 -41 16 -97 -40 -110 -83 -45
-146 53 -49 75 -49 91 0 23 73 49 83 49 20 0 -44 20 -115 63 -228 27 -73 26
-85 -11 -118 -23 -19 -25 -24 -12 -32 8 -5 27 -10 41 -10 41 0 42 -11 3 -47
-32 -29 -36 -37 -31 -70 2 -21 12 -56 20 -78 8 -22 25 -132 36 -245 26 -251
45 -366 76 -466 13 -43 21 -82 18 -87 -9 -15 -125 4 -180 30 -104 48 -146 124
-192 349 -44 209 -48 223 -102 369 -26 72 -71 219 -99 327 -81 317 -111 388
-248 588 -234 340 -258 382 -311 540 -66 195 -85 332 -78 560 2 91 9 188 15
215 6 28 16 79 22 115 53 292 110 392 257 446 45 17 119 12 165 -12z m10584
-289 c61 -30 91 -61 139 -140 58 -97 79 -179 72 -294 -4 -83 -11 -109 -46
-194 -43 -106 -61 -181 -61 -261 0 -40 -12 -75 -59 -175 -32 -69 -72 -169 -89
-221 -17 -52 -47 -147 -67 -210 -20 -63 -73 -212 -117 -330 -117 -309 -196
-539 -278 -805 -28 -92 -56 -226 -80 -375 -33 -217 -67 -308 -141 -380 -48
-46 -131 -90 -187 -97 -54 -7 -129 26 -138 61 -7 27 15 171 77 506 65 350 92
475 136 615 44 140 47 144 180 215 177 94 168 88 147 111 -14 16 -18 39 -19
118 0 75 -4 103 -18 124 -28 43 -66 62 -121 62 -59 0 -64 7 -91 124 -17 72
-17 74 4 102 27 36 27 67 0 95 l-22 23 31 36 c18 19 35 48 39 63 10 35 10 188
0 198 -4 4 -19 -3 -33 -17 -25 -23 -26 -23 -39 -5 -21 29 -38 123 -30 175 9
71 56 157 136 251 39 47 90 109 112 138 21 28 47 52 57 52 11 0 36 30 68 83
63 103 81 147 86 207 5 63 12 73 48 66 25 -5 30 -2 39 23 9 25 54 54 119 75
39 12 99 4 146 -19z m-8184 -6401 c34 -19 67 -40 73 -45 6 -6 -10 -29 -43 -62
-57 -58 -62 -75 -32 -102 27 -25 25 -38 -9 -58 -43 -25 -62 -21 -107 21 -53
50 -117 129 -112 140 4 11 151 141 160 141 3 1 35 -15 70 -35z"/>
<path d="M7720 16345 c0 -30 4 -55 10 -55 5 0 37 18 71 40 34 22 65 40 69 40
5 0 10 7 14 15 4 13 -8 15 -79 15 l-85 0 0 -55z"/>
<path d="M5816 13260 c-36 -40 -45 -60 -26 -60 5 0 16 -13 25 -30 9 -16 20
-30 25 -30 10 0 25 50 36 118 9 55 -11 56 -60 2z"/>
<path d="M8087 12355 c-53 -8 -128 -23 -166 -35 l-69 -22 -30 22 c-30 22 -32
22 -54 6 -47 -34 -129 -87 -143 -92 -26 -10 -16 15 17 45 18 16 30 32 27 36
-4 3 -62 -23 -130 -57 -116 -59 -124 -65 -125 -93 -1 -52 -3 -55 -41 -72 -21
-10 -94 -50 -163 -89 -217 -125 -320 -173 -320 -150 0 2 9 26 21 53 38 87 39
91 25 102 -13 11 -65 -27 -191 -138 l-30 -26 28 -3 c32 -4 34 -19 7 -72 -11
-21 -16 -41 -12 -44 4 -2 36 13 72 35 103 61 103 57 10 -85 -63 -96 -79 -126
-65 -126 2 0 28 11 57 24 67 29 90 55 90 101 0 39 11 48 71 59 25 5 37 3 37
-5 0 -6 -23 -56 -52 -110 -28 -55 -49 -102 -45 -105 9 -9 147 78 147 92 0 7
-7 24 -14 40 -18 34 -15 39 37 66 84 42 129 80 148 123 20 46 19 45 162 94
111 39 120 39 105 6 -17 -37 -5 -40 54 -12 66 30 259 77 320 77 25 0 99 -14
164 -31 129 -33 157 -39 374 -70 80 -12 160 -27 179 -35 45 -19 58 -18 93 7
37 27 85 21 133 -16 40 -30 71 -34 60 -7 -22 53 -23 52 63 52 45 0 84 4 87 10
8 13 -91 175 -118 193 -13 8 -39 19 -59 25 -21 6 -52 28 -76 53 -83 90 -221
150 -402 174 -124 17 -154 17 -283 0z"/>
<path d="M11305 12212 c-84 -28 -147 -67 -255 -155 -65 -53 -65 -53 -68 -110
l-3 -57 335 0 c284 0 335 -2 330 -14 -3 -8 -19 -20 -35 -26 -58 -24 -34 -36
98 -49 70 -7 140 -15 156 -18 28 -6 29 -5 22 26 -8 38 -9 38 120 11 65 -13
136 -20 216 -20 108 0 144 -8 104 -24 -27 -10 -16 -26 18 -26 61 0 232 -50
322 -93 50 -24 119 -68 154 -98 210 -179 236 -199 267 -205 22 -4 40 -1 56 10
29 21 53 20 123 -4 62 -21 95 -25 95 -11 0 4 -25 28 -55 52 -49 39 -69 69 -47
69 5 0 37 -11 72 -25 35 -14 65 -23 68 -21 2 2 -3 15 -12 28 -9 13 -25 51 -36
83 -23 66 -50 100 -86 109 -26 7 -44 40 -44 84 0 19 -26 58 -81 127 -44 55
-86 109 -94 120 -12 17 -16 18 -24 5 -6 -8 -11 -27 -11 -42 0 -35 -7 -35 -56
2 -21 16 -42 30 -46 30 -11 0 2 -30 32 -75 58 -88 79 -131 70 -145 -7 -12 -16
-7 -43 23 -39 42 -59 46 -84 17 -24 -27 -36 -25 -102 14 -93 56 -119 67 -197
81 -91 18 -120 32 -187 93 -99 89 -178 145 -189 134 -8 -8 -6 -18 6 -36 9 -14
16 -33 16 -42 0 -24 -48 -9 -85 26 -41 40 -109 68 -191 80 -38 5 -100 18 -139
29 -38 11 -110 32 -160 46 -127 35 -241 35 -350 -3z"/>
<path d="M12418 12122 c-21 -2 -38 -8 -38 -14 0 -21 73 -109 103 -124 42 -22
139 -55 145 -49 2 2 -32 39 -77 81 -44 42 -81 82 -81 89 0 18 -8 21 -52 17z"/>
<path d="M10555 12015 c-60 -13 -116 -24 -122 -25 -23 0 -14 -20 19 -40 49
-30 123 -34 279 -16 79 9 145 18 147 21 7 7 -42 63 -66 74 -36 17 -137 12
-257 -14z"/>
<path d="M6525 11735 c-132 -126 -133 -132 -24 -122 109 10 157 60 167 172 4
51 2 65 -9 65 -8 0 -68 -52 -134 -115z"/>
<path d="M7985 11734 c-532 -46 -699 -79 -862 -169 -104 -58 -227 -187 -288
-303 -26 -51 -59 -102 -72 -112 -32 -25 -29 -38 10 -42 17 -2 32 -7 32 -13 0
-5 -21 -23 -47 -40 -45 -29 -62 -55 -35 -55 6 0 46 9 87 20 93 24 109 24 140
0 43 -33 51 -26 34 31 -18 61 -14 68 59 99 80 35 146 50 222 50 57 0 82 -6
133 -30 71 -33 76 -52 18 -60 -20 -3 -37 -9 -37 -15 0 -5 37 -20 83 -33 46
-13 91 -26 101 -29 13 -4 17 0 17 20 0 35 14 41 52 23 19 -10 35 -13 41 -7 10
10 2 15 -220 136 -141 77 -163 97 -130 122 23 18 205 93 225 93 28 0 39 -17
52 -88 30 -150 173 -283 337 -314 111 -20 130 -6 285 212 62 88 118 160 124
160 9 0 311 -235 349 -271 20 -19 -19 -27 -164 -33 -173 -8 -241 -15 -241 -26
0 -4 24 -15 53 -24 105 -33 182 -44 287 -41 122 3 301 24 314 36 5 4 -18 42
-51 86 -56 74 -63 79 -133 105 -74 27 -144 72 -272 171 -74 58 -248 153 -354
193 -127 48 -205 55 -404 33 -96 -10 -199 -21 -227 -25 -62 -8 -69 5 -20 34
34 20 345 77 487 88 89 7 319 -17 435 -46 103 -26 213 -81 276 -138 52 -47 65
-49 55 -9 -13 53 -51 90 -141 138 -169 91 -271 103 -610 73z"/>
<path d="M11385 11700 c-65 -12 -129 -35 -180 -65 -44 -25 -122 -101 -113
-110 2 -3 52 17 109 44 147 69 227 92 342 98 64 4 97 2 97 -5 0 -5 -27 -23
-60 -38 -33 -15 -59 -32 -57 -38 4 -13 85 -28 110 -20 9 3 24 18 32 34 10 20
27 32 53 39 151 39 352 11 527 -74 85 -41 167 -107 152 -121 -4 -4 -44 5 -89
19 -125 40 -214 50 -423 51 -176 1 -194 -1 -250 -22 -81 -31 -206 -100 -340
-187 -162 -105 -199 -125 -241 -131 -44 -5 -119 -46 -133 -73 -6 -10 -9 -31
-8 -47 2 -22 -4 -31 -26 -42 -73 -36 17 -77 150 -68 82 5 283 52 283 66 0 4
-14 13 -30 20 -60 25 -78 87 -40 139 21 30 130 109 222 161 65 36 60 39 78
-60 25 -144 104 -247 221 -285 67 -23 192 -16 269 13 50 20 62 31 125 117 39
52 79 97 90 99 28 7 148 -17 152 -30 10 -29 -41 -64 -162 -111 -69 -26 -124
-52 -122 -57 6 -18 61 -27 152 -26 392 7 372 11 395 -61 15 -44 60 -99 81 -99
6 0 29 18 49 40 20 22 40 40 43 40 3 0 35 -18 69 -40 60 -38 67 -40 142 -40
70 0 77 2 71 18 -4 9 -9 31 -12 49 -5 31 -5 31 48 41 30 6 79 14 109 18 46 5
98 21 80 24 -3 1 -68 11 -145 23 -108 17 -140 25 -140 37 0 9 11 16 28 18 37
5 34 16 -10 31 -93 33 -168 110 -201 204 -18 53 -59 95 -168 173 -202 145
-404 201 -834 233 -151 11 -432 11 -495 1z"/>
<path d="M10653 11359 c-11 -4 -24 -12 -27 -18 -10 -15 30 -121 64 -169 16
-23 30 -49 30 -57 0 -28 -26 -15 -58 30 -45 64 -54 61 -101 -32 -25 -51 -31
-75 -31 -126 0 -77 -12 -91 -64 -81 -52 9 -45 -10 14 -43 53 -30 68 -59 26
-51 -14 3 -27 0 -29 -6 -5 -13 7 -113 15 -121 3 -3 24 2 48 10 97 34 129 17
190 -102 35 -69 64 -89 93 -65 7 6 62 36 122 67 61 32 116 63 123 70 11 10 -6
28 -90 97 -135 111 -155 106 -99 -27 17 -39 26 -71 21 -73 -7 -3 -173 110
-204 139 -6 5 0 19 14 34 13 14 22 26 19 28 -2 2 -16 8 -31 15 -33 14 -36 28
-8 37 17 5 19 12 13 51 -5 42 -3 48 42 107 51 65 89 151 83 189 -2 14 -21 35
-50 54 -60 40 -98 53 -125 43z"/>
<path d="M9157 11193 c-4 -3 -7 -67 -7 -141 l0 -135 -37 6 c-21 3 -55 9 -75
13 -26 4 -38 3 -38 -5 0 -10 48 -48 96 -77 18 -10 17 -13 -8 -45 -52 -69 -54
-144 -5 -213 17 -24 25 -27 55 -23 47 8 72 33 72 73 0 44 12 49 59 24 50 -25
92 -26 121 -2 18 15 22 28 21 76 0 32 4 67 10 78 6 11 9 22 7 24 -6 5 -120
-35 -131 -46 -5 -4 -4 -18 3 -30 6 -12 9 -24 6 -27 -7 -8 -86 47 -86 59 0 6
11 24 25 40 25 30 25 32 23 180 l-3 151 -45 13 c-52 16 -55 16 -63 7z"/>
<path d="M8924 8735 c-20 -30 -33 -31 -110 -6 -32 11 -61 18 -63 15 -7 -7 19
-106 34 -130 7 -11 31 -26 54 -34 56 -18 52 -36 -10 -43 -61 -7 -70 -14 -46
-31 9 -7 17 -17 17 -22 0 -15 -115 -184 -126 -184 -6 0 -17 14 -25 32 -8 17
-19 33 -26 35 -6 2 -57 -64 -114 -147 -69 -101 -106 -147 -113 -140 -6 6 -4
28 8 66 10 31 16 58 13 60 -2 2 -47 -25 -100 -61 -114 -77 -133 -85 -168 -73
-22 7 -36 4 -75 -20 -27 -17 -96 -47 -154 -67 -192 -68 -230 -94 -315 -215
-30 -44 -61 -80 -67 -80 -7 0 -21 11 -33 26 l-20 25 -72 -62 c-40 -35 -73 -66
-73 -71 0 -4 13 -5 29 -2 21 5 34 0 50 -17 26 -28 27 -57 2 -83 -20 -21 -20
-22 5 -126 19 -80 22 -110 14 -128 -16 -36 -12 -43 23 -40 35 3 37 -2 23 -74
-8 -46 2 -48 48 -13 40 31 66 32 66 4 0 -11 -7 -52 -15 -92 -9 -40 -17 -80
-19 -89 -2 -10 10 -39 26 -65 l31 -48 45 50 c53 59 112 144 112 162 0 7 -37
41 -82 74 -46 34 -83 66 -83 72 0 6 20 15 44 19 55 9 57 12 41 43 -17 31 -22
31 -68 0 -41 -28 -62 -32 -62 -11 0 23 101 176 116 176 18 0 23 -11 58 -128
30 -104 32 -107 69 -121 21 -7 40 -12 42 -9 3 3 0 19 -6 37 -9 26 -9 35 1 41
7 4 64 14 126 23 98 13 123 13 179 2 84 -18 150 -54 238 -132 40 -35 109 -94
154 -133 45 -38 96 -90 114 -115 18 -25 34 -45 36 -45 2 0 47 22 101 49 131
65 163 74 227 66 50 -6 55 -9 72 -43 l18 -37 120 -6 c66 -3 226 -23 355 -44
151 -24 265 -37 318 -36 98 1 312 51 572 132 265 83 234 80 274 32 43 -49 83
-67 133 -59 70 12 75 11 87 -6 18 -29 -4 -53 -50 -53 -32 0 -39 -3 -39 -20 0
-15 8 -21 29 -23 48 -6 68 4 159 81 60 50 110 83 155 101 59 24 74 36 122 97
75 96 271 286 348 338 76 52 120 71 192 86 52 11 55 13 58 44 3 32 5 33 39 28
57 -10 140 -55 165 -90 18 -26 23 -45 23 -99 0 -36 -3 -69 -7 -73 -3 -4 -16
-1 -28 5 -12 6 -23 10 -24 8 -5 -7 19 -257 25 -263 4 -3 25 27 47 67 46 84 64
103 109 113 34 7 83 55 83 82 0 8 32 76 70 151 100 194 109 276 46 401 -28 54
-180 197 -218 205 -13 3 -40 7 -62 10 -21 3 -68 23 -105 45 -52 31 -82 42
-144 50 -131 18 -187 14 -243 -15 -133 -71 -125 -68 -157 -56 -37 14 -46 8
-24 -16 28 -30 18 -59 -10 -31 -17 17 -34 1 -27 -27 4 -17 1 -26 -11 -30 -22
-9 -35 11 -35 53 0 28 -9 39 -77 89 -150 111 -318 296 -408 448 -14 24 -130
40 -237 33 -190 -12 -378 -99 -651 -301 l-79 -58 26 -27 c14 -15 26 -32 26
-37 0 -11 -184 -94 -206 -94 -6 0 -47 19 -90 43 -76 42 -78 45 -89 93 -6 27
-15 55 -19 62 -11 18 -195 137 -256 166 -30 14 -67 28 -82 31 -22 4 -28 11
-28 31 0 82 -109 168 -265 209 -78 20 -82 19 -101 -10z m1102 -930 c44 -88 71
-128 112 -167 58 -54 69 -54 92 2 7 17 16 30 21 30 5 0 32 -18 61 -40 68 -52
111 -54 163 -9 20 18 37 30 39 28 2 -2 13 -19 24 -38 19 -32 21 -32 31 -13 6
11 11 27 11 36 0 30 18 25 39 -9 23 -40 54 -46 73 -15 7 11 20 20 28 20 8 0
62 -36 120 -80 57 -44 108 -80 112 -80 4 0 5 20 1 45 -5 41 -4 45 15 45 21 0
30 -21 59 -139 10 -40 29 -51 38 -22 3 12 13 21 20 21 16 0 60 -78 50 -88 -3
-4 -71 -23 -150 -43 -123 -31 -150 -41 -185 -72 -69 -59 -199 -96 -338 -97
-29 0 -122 -14 -205 -32 -142 -29 -166 -32 -357 -32 -172 0 -222 3 -310 21
-58 12 -139 25 -180 28 -41 3 -97 8 -125 10 -188 15 -222 23 -267 63 -19 16
-24 52 -8 52 6 0 10 9 10 20 0 11 -6 20 -14 20 -8 0 -51 25 -97 56 -78 51 -87
55 -129 51 -25 -3 -67 -15 -95 -27 -36 -15 -60 -20 -85 -15 -19 4 -72 8 -118
10 -67 3 -96 10 -148 34 -35 16 -64 34 -64 40 0 12 86 86 126 107 17 10 38 15
46 11 8 -3 26 -35 39 -72 24 -69 45 -98 54 -74 21 63 47 126 54 138 8 12 12
13 26 1 12 -10 15 -23 10 -52 -10 -55 12 -49 26 7 6 25 15 47 19 50 4 2 18 -7
30 -20 33 -35 45 -31 59 16 14 45 29 42 51 -11 7 -17 17 -30 22 -30 5 0 35 23
66 50 33 30 65 50 79 50 13 0 45 11 72 24 74 38 111 16 111 -64 0 -48 18 -44
76 19 56 61 81 71 64 26 -5 -13 -6 -26 -2 -29 5 -3 59 29 121 70 62 41 114 74
117 74 2 0 4 -6 4 -14 0 -25 12 -25 100 -4 133 31 183 64 215 142 13 30 19 36
26 25 5 -8 9 -24 9 -37 0 -39 22 -19 37 34 20 72 22 76 32 70 4 -3 35 -58 67
-121z"/>
<path d="M10576 6199 c-145 -12 -193 -18 -219 -24 -15 -4 -28 -1 -36 9 -20 24
-57 19 -83 -11 -21 -26 -30 -28 -98 -30 -80 -2 -275 -15 -558 -39 -95 -8 -181
-14 -191 -14 -13 0 -36 -27 -70 -81 -29 -45 -51 -85 -49 -90 2 -4 37 7 78 25
41 18 107 44 147 57 65 20 75 21 99 9 14 -8 28 -20 31 -27 3 -6 -14 -36 -36
-66 -41 -54 -50 -80 -30 -92 5 -4 71 34 145 85 74 50 138 89 143 86 4 -3 14
-20 21 -38 24 -59 51 -89 104 -114 43 -20 60 -37 97 -94 24 -38 49 -69 54 -69
6 -1 28 34 49 78 21 43 71 118 110 167 71 88 72 89 113 86 l42 -2 6 55 c7 56
21 69 44 41 6 -8 25 -19 40 -26 25 -10 39 -7 107 20 103 41 111 49 84 83 -12
15 -29 26 -38 26 -9 -1 -57 -5 -106 -10z"/>
<path d="M15445 12313 c-27 -8 -53 -18 -57 -21 -11 -11 95 -217 112 -217 12 0
15 22 18 128 3 142 7 135 -73 110z"/>
<path d="M12789 4759 c-25 -27 -29 -39 -29 -90 0 -32 4 -59 9 -59 5 0 28 32
51 70 23 39 46 73 51 76 21 13 8 34 -22 34 -22 0 -40 -9 -60 -31z"/>
<path d="M8944 3569 c-9 -16 5 -26 43 -32 33 -5 103 -19 378 -78 110 -24 126
-26 130 -18 3 4 0 11 -6 15 -12 7 -118 32 -249 59 -41 9 -102 22 -135 30 -105
25 -155 33 -161 24z"/>
</g>
</svg>
